# xmcd
#
# Track frame offsets:
#	150
#	13662
#	33077
#	48897
#	69585
#	86925
#	104395
#	121160
#	139527
#	156892
#	175862
#	189982
#	210150
#	222875
#	238147
#	255142
#	268257
#	288615
#
# Disc length: 4086 seconds
#
# Revision: 0
# Processed by: cddbd v1.4PL0 Copyright (c) Steve Scherf et al.
# Submitted via: audiograbber 1.82.00
#
DISCID=f70ff412
DTITLE=Neil Diamond - Tennessee Moon
DYEAR=1996
DGENRE=Blues
TTITLE0=Tennessee Moon
TTITLE1=One Good Love (Duet with Waylon Jennings)
TTITLE2=Shame
TTITLE3=A Matter of Love
TTITLE4=Marry Me
TTITLE5=Deep Inside of You
TTITLE6=Gold Don't Rust
TTITLE7=Like You Do
TTITLE8=Can Anybody Hear Me
TTITLE9=Win the World
TTITLE10=No Limit
TTITLE11=Reminisce For A While
TTITLE12=Kentucky Woman
TTITLE13=If I Lost My Way
TTITLE14=Everybody
TTITLE15=Talking Optimist Blues (Good Day Today)
TTITLE16=Open Wide These Prison Doors
TTITLE17=Blue Highway (Featuring Chet Atkins)
EXTD=
EXTT0=
EXTT1=
EXTT2=
EXTT3=
EXTT4=
EXTT5=
EXTT6=
EXTT7=
EXTT8=
EXTT9=
EXTT10=
EXTT11=
EXTT12=
EXTT13=
EXTT14=
EXTT15=
EXTT16=
EXTT17=
PLAYORDER=
